<svg width="19" height="18" viewBox="0 0 19 18" fill="none" xmlns="http://www.w3.org/2000/svg">
<path fill-rule="evenodd" clip-rule="evenodd" d="M18.7387 2C18.7387 3.10457 17.8433 4 16.7387 4C15.6341 4 14.7387 3.10457 14.7387 2C14.7387 0.895431 15.6341 0 16.7387 0C17.8433 0 18.7387 0.895431 18.7387 2ZM0.738704 12C0.738704 12 9.7387 13 18.7387 4V16.0024C18.7387 17.107 17.8433 18 16.7387 18H2.7387C1.63413 18 0.738704 17.1046 0.738704 16V12ZM0.711914 10.4996C4.05259 10.5892 7.22001 9.52065 9.71403 8.26895C12.2041 7.01921 14.1104 5.54256 14.9458 4.70711L13.5316 3.29289C12.867 3.95744 11.1423 5.31438 8.81692 6.48144C6.49545 7.64653 3.66287 8.57801 0.765494 8.50036L0.711914 10.4996Z" fill="white"/>
</svg>
