<svg width="25" height="16" viewBox="0 0 25 16" fill="none" xmlns="http://www.w3.org/2000/svg">
<path d="M17.723 1.27829C17.3421 1.41667 16.9958 1.5553 16.7191 1.72845H8.75609C8.44455 1.55529 8.13302 1.41691 7.75218 1.27829C3.04362 -0.348931 2.73184 3.11324 1.34716 7.02556C-0.0723969 10.9376 0.550919 14.7462 2.66284 15.5079C4.80933 16.2696 7.64819 13.7075 9.06787 9.76062V9.72608H16.3731V9.76062C17.7578 13.6729 20.6315 16.2349 22.7435 15.5079C24.8899 14.7462 25.4785 10.9725 24.0937 7.02556C22.709 3.11324 22.3974 -0.348869 17.7233 1.27829H17.723ZM8.96369 6.47155C8.96369 6.5754 8.89438 6.67924 8.756 6.67924H7.37125V8.06399C7.37125 8.16784 7.30194 8.27168 7.16356 8.27168H6.09035C5.9865 8.27168 5.88265 8.20237 5.88265 8.06399V6.67924H4.49791C4.39406 6.67924 4.29022 6.60993 4.29022 6.47155L4.28997 5.39834C4.28997 5.29449 4.35929 5.19065 4.49767 5.19065H5.88241V3.8059C5.88241 3.70205 5.95173 3.59821 6.09011 3.59821H7.16332C7.26717 3.59821 7.37101 3.66752 7.37101 3.8059V5.19065H8.75576C8.8596 5.19065 8.96345 5.25996 8.96345 5.39834L8.96369 6.47155ZM18.9001 3.21705C19.4194 3.21705 19.8002 3.63243 19.8002 4.11715C19.8005 4.60184 19.4196 5.052 18.9001 5.052C18.3809 5.052 18 4.63661 18 4.1519C18 3.66718 18.4154 3.21705 18.9001 3.21705ZM17.1 6.85239C16.5808 6.85239 16.1999 6.437 16.1999 5.95229C16.1999 5.43306 16.6153 5.05218 17.1 5.05218C17.6192 5.05218 18.0001 5.46757 18.0001 5.95229C18.0346 6.43674 17.6192 6.85239 17.1 6.85239ZM18.9001 8.65254C18.3809 8.65254 18 8.23715 18 7.75243C18 7.23321 18.4154 6.85233 18.9001 6.85233C19.4194 6.85233 19.8002 7.26772 19.8002 7.75243C19.835 8.23712 19.4196 8.65254 18.9001 8.65254ZM20.7353 6.85239C20.2161 6.85239 19.8352 6.437 19.8352 5.95229C19.8352 5.43306 20.2506 5.05218 20.7353 5.05218C21.2546 5.05218 21.6354 5.46757 21.6354 5.95229C21.6354 6.43674 21.2201 6.85239 20.7353 6.85239Z" fill="white"/>
</svg>
