<svg width="35" height="35" viewBox="0 0 35 35" fill="none" xmlns="http://www.w3.org/2000/svg">
<path fill-rule="evenodd" clip-rule="evenodd" d="M16.2486 9.02315C16.1758 7.64849 16.1979 5.84947 16.2874 4.10227C16.8487 4.03475 17.4202 4 18 4C24.0015 4 29.121 7.72426 31.112 12.9572C26.5084 9.67767 21.4612 8.47674 16.2486 9.02315ZM14.7732 9.94492C14.6358 8.50066 14.6406 6.40321 14.7338 4.37776C12.905 4.80878 11.2156 5.59372 9.74405 6.65509C9.55726 9.85277 9.50687 12.3017 9.98965 14.547C10.4409 16.6456 11.3678 18.6027 13.1716 20.8155L16.9724 16.584C15.6703 14.4026 15.0105 12.4403 14.7732 9.94492ZM16.3899 10.5341C21.8275 9.95877 27.0613 11.4168 31.7908 15.4159C31.9283 16.1926 32 16.9915 32 17.8069C32 18.9665 31.8551 20.0927 31.5821 21.1688C29.4229 19.3412 26.8791 18.0395 25.3211 17.3337C23.0951 16.3253 20.9786 15.9698 18.3595 15.9165C17.2563 14.0924 16.6609 12.4866 16.3899 10.5341ZM30.757 22.7332C28.9514 21.0795 26.993 19.8188 25.3577 19.0299C24.3335 21.0374 23.0346 23.0507 21.6209 24.8474C24.0585 25.4237 26.6401 25.1942 30.757 22.7332ZM20.0514 24.3594C21.5276 22.5483 22.894 20.4718 23.953 18.4074C22.2105 17.7325 20.4702 17.4727 18.2658 17.4322L14.2085 21.9492C15.4844 22.2886 16.6407 22.8306 17.7929 23.3706C18.5371 23.7194 19.2795 24.0673 20.0514 24.3594ZM11.8406 21.6029C9.99413 19.2977 8.98185 17.1741 8.48465 14.8618C8.03713 12.7804 8.01494 10.5753 8.1317 8.01329C5.57987 10.5142 4 13.9786 4 17.8069C4 19.492 4.30608 21.1065 4.86639 22.5994C5.03536 23.0497 5.56637 23.2286 6.00301 23.0224C8.3017 21.9369 10.1913 21.5632 11.8406 21.6029ZM29.1488 26.6625C29.2579 26.525 29.102 26.3419 28.943 26.4174C27.3746 27.1628 25.0636 28.0075 22.9462 27.8067C21.3447 27.6548 19.4863 26.8201 17.6366 25.9892C15.8864 25.2031 14.1441 24.4205 12.6348 24.2233C10.636 23.9623 8.41635 24.6539 6.93903 25.2611C6.56264 25.4158 6.42932 25.8729 6.66815 26.2009C10.5 24.2543 13.3869 32 18.084 32C22.572 32 26.5697 29.9132 29.1488 26.6625Z" fill="white"/>
</svg>
