<svg version="1.1" viewBox="0 0 500 500" xmlns="http://www.w3.org/2000/svg" xmlns:xlink="http://www.w3.org/1999/xlink">
 <g>
  <path d="m181.38 529.4 39.469-42.547c22.082 11.703 47.555 18.598 75.105 18.594 36.281 0 69.562-11.766 95.133-31.426 23.66-18.184 40.633-43.305 47.098-72.016h86.387c4.4922 0 8.1328-3.6406 8.1328-8.1328s-3.6406-8.1328-8.1328-8.1328l-91.605-0.003907-0.015625-0.003906c-0.80469-0.12891-1.5977-0.10156-2.3672 0.003906h-126.45v-162.04l147.45-97.641c2.375-1.5742 3.7539-4.2617 3.6328-7.1133-0.11719-2.8516-1.7031-5.4141-4.1992-6.7891l-151.09-83.152c-2.5195-1.3906-5.5781-1.3398-8.0547 0.125-2.4766 1.4688-3.9922 4.1211-3.9922 7v354.55l-118.41 127.65c-3.0508 3.293-2.8633 8.4336 0.42969 11.484 3.2891 3.0625 8.4336 2.8633 11.484-0.42188zm199.8-68.277c-22.645 17.422-52.465 28.062-85.223 28.055-23.258-0.003907-44.742-5.3945-63.648-14.684l67.25-72.496h122.02c-6.125 23.227-20.438 43.762-40.402 59.125zm-77.039-256.92v-154.32l127.27 70.039z"/>
 </g>
</svg>
